<svg xmlns="http://www.w3.org/2000/svg" version="1.1" xmlns:xlink="http://www.w3.org/1999/xlink" width="512" height="512" x="0" y="0" viewBox="0 0 16.933 16.933" style="enable-background:new 0 0 512 512" xml:space="preserve" class=""><g><path d="M3.173 0a3.174 3.174 0 1 0 0 6.348 3.174 3.174 0 0 0 0-6.348zm10.584 0a3.174 3.174 0 1 0 0 6.348 3.174 3.174 0 0 0 0-6.348zM3.173.53A2.647 2.647 0 0 1 5.82 3.174 2.652 2.652 0 0 1 3.173 5.82a2.645 2.645 0 0 1 0-5.29zm10.584 0a2.647 2.647 0 0 1 2.647 2.644 2.652 2.652 0 0 1-2.647 2.646 2.645 2.645 0 0 1 0-5.29zM3.174.926c-.13 0-.265.086-.265.264v.253a1.155 1.155 0 0 0-.912 1.123c0 .39.197.613.433.728.237.116.489.133.717.156.228.024.434.055.54.106.064.037.136.072.136.252 0 .338-.278.62-.639.623-.302-.006-.54-.192-.64-.523-.117-.333-.602-.179-.506.16.17.527.525.77.87.86v.232c0 .358.53.345.53 0v-.23a1.16 1.16 0 0 0 .914-1.122c0-.385-.197-.61-.433-.726-.237-.116-.489-.133-.717-.157-.228-.023-.434-.055-.54-.107-.078-.038-.136-.09-.136-.252 0-.344.278-.614.639-.617.324.012.535.183.64.518.113.326.597.187.506-.16-.13-.413-.41-.74-.873-.858V1.19c0-.175-.134-.263-.264-.264zm10.584 0c-.13 0-.265.086-.265.264v.253a1.155 1.155 0 0 0-.912 1.123c0 .39.197.613.433.728.237.116.489.133.717.156.228.024.433.055.539.106.065.037.137.072.137.252 0 .338-.278.62-.639.623-.302-.006-.54-.192-.64-.523-.117-.333-.602-.179-.506.16.17.527.524.77.87.86v.232c0 .358.53.345.53 0v-.23a1.16 1.16 0 0 0 .914-1.122c0-.385-.197-.61-.434-.726-.236-.116-.488-.133-.716-.157-.228-.023-.434-.055-.54-.107-.078-.038-.136-.09-.136-.252 0-.344.278-.614.639-.617.324.012.534.183.64.518.113.326.596.187.506-.16-.13-.413-.41-.74-.873-.858V1.19c0-.175-.134-.263-.264-.264zM8.942 2.174l.206.207H7.145c-.354 0-.354.53 0 .53h2.644a.265.265 0 0 0 .188-.452l-.662-.66c-.251-.25-.621.127-.373.375zM7.145 3.44a.265.265 0 0 0-.188.453l.655.65c.261.26.636-.116.374-.375l-.2-.2h2.003c.355 0 .355-.528 0-.528zm6.495 3.68-1.212.696c-.34.194-.485.62-.289.958l.032.054c-.551.196-1.123.15-1.541.08a7.873 7.873 0 0 0-2.177-.067c-.533.058-1.38.228-1.757.7L5 9.206l.024-.042a.723.723 0 0 0-.267-.994l-1.211-.695a.734.734 0 0 0-1 .266L.1 11.956a.725.725 0 0 0 .267.994l1.21.695c.35.2.773.07.957-.2l.682.509a.84.84 0 0 0 .688 1.239.848.848 0 0 0 1.206.899.851.851 0 0 0 1.127.379.834.834 0 0 0 .332.35.855.855 0 0 0 1.158-.31l.127-.219.873.502a.848.848 0 0 0 1.261-.618.847.847 0 0 0 1.195-.71.84.84 0 0 0 .873-.405.831.831 0 0 0 .109-.313.845.845 0 0 0 1.136-1.085l1.064-1.057c.198.343.644.428.981.234l1.213-.696c.339-.195.483-.62.286-.957-.742-1.278-1.488-2.555-2.227-3.835-.18-.311-.607-.445-.977-.232zm.52.494 2.227 3.836c.038.067.006.179-.095.237l-1.212.696c-.102.058-.216.03-.255-.037-.043-.074-1.474-2.563-2.227-3.836-.04-.067-.01-.177.095-.237l1.213-.696c.115-.066.217-.026.254.037zM3.28 7.93l1.212.695a.196.196 0 0 1 .074.274l-2.449 4.216a.2.2 0 0 1-.274.072l-1.211-.695a.2.2 0 0 1-.074-.272c.047-.082 1.635-2.809 2.448-4.216a.2.2 0 0 1 .275-.074zm9.16 1.36c.557.953 1.094 1.89 1.644 2.846-.355.356-.848.844-1.128 1.124l-4.702-2.698a.264.264 0 0 0-.348.076c-.306.433-.784.874-1.18 1.104-.198.115-.373.173-.463.175-.061 0-.093 0-.11-.076a.882.882 0 0 1 .042-.31c.049-.176.136-.391.244-.61.216-.436.545-.928.701-1.084.235-.234.727-.396 1.373-.47a7.425 7.425 0 0 1 2.025.063c.693.122 1.225.062 1.588-.034.106-.029.21-.06.314-.106zm-7.72.399 1.628.324a6.713 6.713 0 0 0-.384.672 4.1 4.1 0 0 0-.28.705c-.055.203-.103.442-.02.663.098.26.328.402.607.392.244-.006.494-.112.72-.244.419-.243.861-.64 1.2-1.065l4.48 2.57a.31.31 0 0 1 .117.43.318.318 0 0 1-.435.115c-1.03-.592-2.629-1.506-3.08-1.767-.305-.176-.571.283-.264.459l2.475 1.42c.156.09.2.282.115.43a.32.32 0 0 1-.436.115c-.706-.406-1.412-.812-2.12-1.217-.305-.176-.569.284-.263.46.573.328 1.146.655 1.718.984.156.09.2.28.114.429a.319.319 0 0 1-.435.115c-.471-.271-.943-.54-1.412-.811-.306-.177-.57.283-.265.46l.807.462c.157.09.202.283.117.43a.32.32 0 0 1-.436.115l-.922-.53a.842.842 0 0 0-.416-.846.841.841 0 0 0-.473-.112.839.839 0 0 0-.42-.668.84.84 0 0 0-.472-.113.85.85 0 0 0-1.534-.43.847.847 0 0 0-1.232-.117l-.715-.533zm.878 4.168c.15.086.205.276.115.43-.238.412-.492.848-.699 1.204a.314.314 0 0 1-.432.115.312.312 0 0 1-.118-.43l.699-1.205a.316.316 0 0 1 .435-.114zm-1.36.023c.151.087.207.275.117.43l-.116.2a.318.318 0 0 1-.55-.315l.115-.201a.314.314 0 0 1 .435-.114zm2.253.757a.314.314 0 0 1 .115.431l-.466.801a.317.317 0 0 1-.55-.315l.466-.802a.319.319 0 0 1 .435-.115zm.893.78c.15.086.206.275.116.43l-.233.401a.317.317 0 0 1-.55-.316l.232-.402a.316.316 0 0 1 .435-.113z" fill="#000000" opacity="1" data-original="#000000" class=""></path></g></svg>