<svg xmlns="http://www.w3.org/2000/svg" version="1.1" xmlns:xlink="http://www.w3.org/1999/xlink" width="512" height="512" x="0" y="0" viewBox="0 0 490.667 490.667" style="enable-background:new 0 0 512 512" xml:space="preserve" class=""><g><path d="M245.333 383.984c5.888 0 10.667-4.779 10.667-10.667V362.65h6.4c7.936 0 15.616-1.771 22.869-5.269 6.869-3.328 13.013-8.043 18.261-14.016 5.205-5.909 9.28-12.736 12.053-20.245 2.944-7.765 4.416-16 4.416-24.469s-1.472-16.704-4.373-24.448c-2.816-7.552-6.869-14.357-12.075-20.267-5.248-5.973-11.392-10.688-18.261-14.016-7.275-3.499-14.955-5.269-22.891-5.269H256v-85.333h6.4c4.693 0 9.28 1.067 13.589 3.136 4.288 2.091 8.192 5.056 11.563 8.896a43.896 43.896 0 0 1 8.085 13.653 10.661 10.661 0 0 0 13.739 6.272c5.525-2.069 8.341-8.213 6.272-13.739-2.816-7.552-6.869-14.357-12.075-20.267-5.248-5.973-11.392-10.688-18.261-14.016-7.296-3.499-14.976-5.269-22.912-5.269H256v-10.667c0-5.888-4.779-10.667-10.667-10.667s-10.667 4.779-10.667 10.667v10.667h-6.4c-7.936 0-15.616 1.771-22.869 5.269-6.869 3.328-13.013 8.043-18.261 14.016-5.227 5.931-9.28 12.736-12.075 20.267-2.923 7.744-4.395 15.979-4.395 24.448 0 8.469 1.472 16.704 4.373 24.448 2.816 7.552 6.869 14.357 12.075 20.267 5.248 5.973 11.392 10.688 18.261 14.016 7.275 3.499 14.955 5.269 22.891 5.269h6.4v85.333h-6.4c-4.693 0-9.28-1.067-13.589-3.136-4.288-2.091-8.192-5.056-11.563-8.896a43.896 43.896 0 0 1-8.085-13.653c-2.069-5.504-8.149-8.363-13.739-6.272-5.525 2.069-8.341 8.213-6.272 13.739 2.816 7.552 6.869 14.357 12.075 20.267 5.248 5.973 11.392 10.688 18.261 14.016 7.296 3.499 14.976 5.269 22.912 5.269h6.4v10.667c.001 5.887 4.779 10.666 10.667 10.666zm10.667-128h6.4c4.693 0 9.28 1.067 13.589 3.136 4.288 2.091 8.192 5.056 11.563 8.896 3.456 3.968 6.187 8.533 8.107 13.675 1.984 5.355 3.008 11.051 3.008 16.96s-1.024 11.605-3.051 16.981c-1.899 5.099-4.629 9.685-8.085 13.653-3.371 3.84-7.275 6.805-11.563 8.896-4.309 2.069-8.875 3.136-13.568 3.136H256v-85.333zm-27.733-21.333c-4.693 0-9.28-1.067-13.589-3.136-4.288-2.091-8.192-5.056-11.563-8.896-3.456-3.968-6.187-8.533-8.107-13.675-1.984-5.355-3.008-11.051-3.008-16.96 0-5.909 1.024-11.605 3.051-16.981 1.899-5.099 4.629-9.685 8.085-13.653 3.371-3.84 7.275-6.805 11.563-8.896 4.309-2.069 8.875-3.136 13.568-3.136h6.4v85.333h-6.4z" fill="#000000" opacity="1" data-original="#000000" class=""></path><path d="M480 234.651c-5.888 0-10.667 4.779-10.667 10.667 0 7.744-.405 15.403-1.152 22.891-.789 7.531-1.92 14.976-3.413 22.251a213.565 213.565 0 0 1-5.504 21.461 231.403 231.403 0 0 1-7.531 20.565c-2.859 6.699-5.973 13.227-9.451 19.605a217.617 217.617 0 0 1-11.221 18.475c-4.011 5.952-8.341 11.712-12.864 17.237-4.587 5.525-9.387 10.837-14.485 15.915a231.574 231.574 0 0 1-15.915 14.464c-5.525 4.544-11.264 8.875-17.259 12.885-5.952 4.032-12.139 7.765-18.453 11.221a222.989 222.989 0 0 1-19.584 9.408 238.721 238.721 0 0 1-20.544 7.552 223.418 223.418 0 0 1-21.504 5.504c-7.275 1.493-14.72 2.624-22.208 3.413-15.083 1.493-30.827 1.493-45.824 0-7.531-.789-14.976-1.92-22.251-3.413a213.565 213.565 0 0 1-21.461-5.504 231.403 231.403 0 0 1-20.565-7.531 239.778 239.778 0 0 1-19.584-9.408c-6.336-3.477-12.523-7.211-18.496-11.264-5.952-4.011-11.712-8.341-17.237-12.864-5.525-4.587-10.837-9.387-15.915-14.485s-9.899-10.389-14.464-15.915c-4.501-5.504-8.853-11.264-12.864-17.237-1.728-2.539-3.2-5.269-4.8-7.893h62.549c5.888 0 10.667-4.779 10.667-10.667s-4.779-10.667-10.667-10.667H32c-5.888 0-10.667 4.779-10.667 10.667v85.333c0 5.888 4.779 10.667 10.667 10.667s10.667-4.779 10.667-10.667v-53.803c4.203 6.165 8.619 12.139 13.376 17.856a239.551 239.551 0 0 0 15.808 17.408 255.274 255.274 0 0 0 17.408 15.829 243.767 243.767 0 0 0 18.88 14.101 249.391 249.391 0 0 0 20.245 12.309 242.01 242.01 0 0 0 21.461 10.325 246.664 246.664 0 0 0 22.549 8.256 252.776 252.776 0 0 0 23.509 6.037 245.99 245.99 0 0 0 24.384 3.712c8.235.853 16.597 1.301 25.045 1.301s16.811-.448 25.109-1.28a246.981 246.981 0 0 0 24.341-3.712 259.195 259.195 0 0 0 23.552-6.037 242.923 242.923 0 0 0 22.528-8.277 248.07 248.07 0 0 0 21.461-10.325 244.64 244.64 0 0 0 20.203-12.267 240.725 240.725 0 0 0 18.901-14.144c6.059-4.992 11.883-10.261 17.408-15.808s10.816-11.349 15.829-17.408a243.767 243.767 0 0 0 14.101-18.88 244.15 244.15 0 0 0 12.267-20.224 237.296 237.296 0 0 0 10.368-21.483 246.664 246.664 0 0 0 8.256-22.549 252.776 252.776 0 0 0 6.037-23.509 245.99 245.99 0 0 0 3.712-24.384c.811-8.235 1.259-16.597 1.259-25.045.003-5.887-4.776-10.665-10.664-10.665zM22.485 222.427c.789-7.531 1.92-14.976 3.413-22.251a213.565 213.565 0 0 1 5.504-21.461 224.862 224.862 0 0 1 7.509-20.565c2.859-6.699 5.995-13.248 9.429-19.584 3.477-6.336 7.211-12.523 11.264-18.496 3.989-5.952 8.341-11.712 12.843-17.237 4.587-5.525 9.387-10.837 14.485-15.915a231.574 231.574 0 0 1 15.915-14.464c5.525-4.523 11.285-8.875 17.259-12.885 5.952-4.032 12.139-7.765 18.453-11.221a226.219 226.219 0 0 1 19.584-9.429c6.677-2.837 13.589-5.355 20.544-7.531a223.418 223.418 0 0 1 21.504-5.504c7.275-1.493 14.72-2.624 22.208-3.413 15.083-1.493 30.827-1.493 45.824 0 7.531.789 14.976 1.92 22.251 3.413a213.565 213.565 0 0 1 21.461 5.504 231.403 231.403 0 0 1 20.565 7.531 239.778 239.778 0 0 1 19.584 9.408c6.336 3.477 12.523 7.211 18.496 11.264 5.952 4.011 11.712 8.341 17.237 12.864 5.525 4.587 10.837 9.387 15.915 14.485a231.574 231.574 0 0 1 14.464 15.915c4.544 5.525 8.875 11.264 12.885 17.259 1.728 2.539 3.179 5.269 4.8 7.893h-62.549c-5.888-.021-10.667 4.757-10.667 10.645s4.779 10.667 10.667 10.667h85.333c5.888 0 10.667-4.779 10.667-10.667V53.317c0-5.888-4.779-10.667-10.667-10.667s-10.667 4.779-10.667 10.667v53.803c-4.203-6.165-8.619-12.139-13.376-17.856-4.992-6.059-10.261-11.883-15.808-17.408s-11.349-10.837-17.429-15.851a243.767 243.767 0 0 0-18.88-14.101 249.391 249.391 0 0 0-20.245-12.309 242.01 242.01 0 0 0-21.461-10.325 246.664 246.664 0 0 0-22.549-8.256 252.776 252.776 0 0 0-23.509-6.037 245.99 245.99 0 0 0-24.384-3.712c-16.491-1.664-33.579-1.664-50.176 0a246.981 246.981 0 0 0-24.341 3.712 254.644 254.644 0 0 0-23.488 6.037 248.99 248.99 0 0 0-22.528 8.256 241.791 241.791 0 0 0-21.461 10.325c-6.955 3.776-13.675 7.893-20.203 12.288a244.549 244.549 0 0 0-18.88 14.144 239.872 239.872 0 0 0-17.429 15.808 245.317 245.317 0 0 0-15.829 17.429 247.508 247.508 0 0 0-14.101 18.859c-4.416 6.549-8.533 13.269-12.309 20.267-3.776 6.933-7.211 14.101-10.347 21.44a248.852 248.852 0 0 0-8.235 22.549 252.776 252.776 0 0 0-6.037 23.509 245.99 245.99 0 0 0-3.712 24.384A248.885 248.885 0 0 0 0 245.317c0 5.888 4.779 10.667 10.667 10.667s10.667-4.779 10.667-10.667a230.845 230.845 0 0 1 1.151-22.89z" fill="#000000" opacity="1" data-original="#000000" class=""></path></g></svg>