<svg xmlns="http://www.w3.org/2000/svg" version="1.1" xmlns:xlink="http://www.w3.org/1999/xlink" width="512" height="512" x="0" y="0" viewBox="0 0 512 512" style="enable-background:new 0 0 512 512" xml:space="preserve" class=""><g><path d="M394.163 119.466c-4.535-31.37-19.603-60.217-43.037-82.042C325.213 13.291 291.431 0 256.002 0c-35.429 0-69.211 13.291-95.125 37.424-23.434 21.825-38.501 50.672-43.037 82.042-50.475 22.04-83.763 72.319-83.763 127.977 0 76.979 62.627 139.605 139.605 139.605A139.49 139.49 0 0 0 241 369.741V512h30V369.741a139.49 139.49 0 0 0 67.318 17.307c76.979 0 139.605-62.627 139.605-139.605.003-55.658-33.285-105.938-83.76-127.977zM338.32 357.048c-24.474 0-48.13-8.171-67.318-23.122v-91.75l67.279-35.375-13.962-26.553-53.317 28.034V149.23h-30v125.545l-53.317-28.034-13.962 26.553 67.279 35.375v25.257a109.472 109.472 0 0 1-67.318 23.122c-60.437 0-109.605-49.169-109.605-109.605 0-46.211 29.226-87.7 72.725-103.241l9.176-3.278.734-9.716c2.078-27.469 14.369-52.979 34.61-71.83C201.665 40.433 228.187 30 256.002 30s54.337 10.433 74.679 29.377c20.241 18.851 32.532 44.36 34.61 71.83l.734 9.716 9.176 3.278c43.499 15.541 72.725 57.03 72.725 103.241 0 60.437-49.169 109.606-109.606 109.606z" fill="#000000" opacity="1" data-original="#000000" class=""></path></g></svg>